<?xml version="1.0" encoding="UTF-8" standalone="yes"?>
<svg version="1.1" width="64" height="64" color-interpolation="linearRGB"
     xmlns:svg="http://www.w3.org/2000/svg" xmlns="http://www.w3.org/2000/svg">
 <g>
  <path style="fill:#494343"
        d="M2.31 9.63L4.63 8L16.15 12.5L16.22 15.15L40.77 24.63L40.22 59.07L38.38 61.18L4.63 45.97L2.47 12.22L2.31 9.63z"
        transform="matrix(0.6619,0,0,0.6803,26.7836,-0.4427)"
  />
  <path style="fill:#6b6b6b"
        d="M2.31 9.63L4.63 8L16.15 12.5L16.22 15.15L40.77 24.63L40.22 59.07L38.38 61.18L4.63 45.97L2.47 12.22L2.31 9.63z"
        transform="matrix(0.7637,0.0151,-0.0149,0.7554,19.1078,0.6537)"
  />
  <path style="fill:#8d8d8d"
        d="M2.31 9.63L4.63 8L16.15 12.5L16.22 15.15L40.77 24.63L40.22 59.07L38.38 61.18L4.63 45.97L2.47 12.22L2.31 9.63z"
        transform="matrix(0.8959,0,0,0.8871,9.2411,-0.0974)"
  />
  <path style="fill:#b3b3b3"
        d="M2.31 9.63L4.63 8L16.15 12.5L16.22 15.15L40.77 24.63L40.22 59.07L38.38 61.18L4.63 45.97L2.47 12.22L2.31 9.63z"
  />
  <path style="fill:#ffffff"
        d="M3.75 14.34L5.65 44.68L37.09 58.86L37.5 27.5L3.75 14.34z"
  />
  <path style="fill:#ffd200"
        d="M2.31 9.63L4.63 8L16.15 12.5L16.22 15.15L14.11 16.86L2.47 12.22L2.31 9.63z"
  />
  <path style="fill:#000000; fill-opacity:0.3058"
        d="M38.72 26.41L40.77 24.63L40.34 51.57L43.76 53.11L44.05 22.8L45.84 21.26L45.46 45.39L48.35 46.7L48.61 20.04L50.18 18.68L49.85 39.69L52.33 40.82L52.94 17.27L53.93 16.31L53.57 39.41L53.66 34.33L62.94 38.49L61.85 39.77L53.12 40.76L60.47 44.03L59.22 45.5L49.74 46.59L57.54 50.08L56.12 51.74L44.49 53.03L54.2 57.7L52.57 59.61L38.38 61.18L38.72 26.41z"
  />
  <path style="fill:none; stroke:#000000; stroke-width:0.0954"
        d="M38.72 26.41L40.77 24.63L40.34 51.57L43.76 53.11L44.05 22.8L45.84 21.26L45.46 45.39L48.35 46.7L48.61 20.04L50.18 18.68L49.85 39.69L52.33 40.82L52.94 17.27L53.93 16.31L53.57 39.41L53.66 34.33L62.94 38.49L61.85 39.77L53.12 40.76L60.47 44.03L59.22 45.5L49.74 46.59L57.54 50.08L56.12 51.74L44.49 53.03L54.2 57.7L52.57 59.61L38.38 61.18L38.72 26.41z"
  />
  <path style="fill:none; stroke:#000000; stroke-width:2"
        d="M29.7 5.15L28.14 6.25L28.25 7.99L28.26 8.19L22.47 5.93L20.7 7.18L20.82 9.17L20.83 9.29L14.34 6.76L12.32 8.19L12.46 10.44L12.5 11.07L4.63 8L2.31 9.63L2.47 12.22L4.63 45.97L38.38 61.18L40.22 59.07L40.34 51.57L43.76 53.11L45.36 51.27L45.45 45.4L48.35 46.7L49.76 45.08L49.84 39.7L52.33 40.82L53.57 39.41L53.93 16.31L37.47 9.95L37.42 8.17L29.7 5.15z"
  />
  <path style="fill:none; stroke:#000000; stroke-width:1"
        d="M12.5 11.07L16.15 12.5L16.22 15.15L40.77 24.63L40.34 51.57"
  />
  <path style="fill:none; stroke:#000000; stroke-width:1"
        d="M12.5 11.07L16.15 12.5L16.22 15.15L40.77 24.63L40.34 51.57"
        transform="matrix(0.7927,0,0,0.7803,17.5535,-0.6698)"
  />
  <path style="fill:none; stroke:#000000; stroke-width:1"
        d="M12.5 11.07L16.15 12.5L16.22 15.15L40.77 24.63L40.34 51.57"
        transform="matrix(0.8618,0,0,0.8535,10.7023,0.5534)"
  />
 </g>
</svg>
